<svg width="20" height="21" viewBox="0 0 20 21" fill="none" xmlns="http://www.w3.org/2000/svg">
<path opacity="0.4" d="M5.75 8.08333L9.725 6.31667C9.9 6.24167 10.1 6.24167 10.2667 6.31667L14.25 8.08333C14.6 8.24167 14.925 7.81667 14.6833 7.51667L10.5167 2.425C10.2333 2.075 9.76666 2.075 9.48333 2.425L5.31666 7.51667C5.075 7.81667 5.4 8.24167 5.75 8.08333Z" fill="#333333"/>
<path opacity="0.4" d="M5.74999 12.9167L9.73332 14.6833C9.90832 14.7583 10.1083 14.7583 10.275 14.6833L14.2583 12.9167C14.6083 12.7583 14.9333 13.1833 14.6917 13.4833L10.525 18.575C10.2417 18.925 9.77499 18.925 9.49165 18.575L5.32499 13.4833C5.07499 13.1833 5.39166 12.7583 5.74999 12.9167Z" fill="#333333"/>
<path d="M9.81665 8.40833L6.37499 10.125C6.06665 10.275 6.06665 10.7167 6.37499 10.8667L9.81665 12.5833C9.93332 12.6417 10.075 12.6417 10.1917 12.5833L13.6333 10.8667C13.9417 10.7167 13.9417 10.275 13.6333 10.125L10.1917 8.40833C10.0667 8.35 9.93332 8.35 9.81665 8.40833Z" fill="#333333"/>
</svg>
