<svg width="54" height="44" viewBox="0 0 54 44" fill="none" xmlns="http://www.w3.org/2000/svg">
<path fill-rule="evenodd" clip-rule="evenodd" d="M21.6666 43.3333C33.4487 43.3333 43 33.7821 43 22C43 10.2179 33.4487 0.666656 21.6666 0.666656C9.88457 0.666656 0.333313 10.2179 0.333313 22C0.333313 33.7821 9.88457 43.3333 21.6666 43.3333ZM21.6667 42.2667C31.0923 42.2667 38.7334 34.6257 38.7334 25.2C38.7334 15.7743 31.0923 8.13333 21.6667 8.13333C12.241 8.13333 4.60002 15.7743 4.60002 25.2C4.60002 34.6257 12.241 42.2667 21.6667 42.2667Z" fill="white"/>
<path fill-rule="evenodd" clip-rule="evenodd" d="M43 22C48.891 22 53.6666 26.7757 53.6666 32.6667C53.6666 38.5577 48.891 43.3334 43 43.3334C37.1089 43.3334 32.3333 38.5577 32.3333 32.6667C32.3333 26.7757 37.1089 22 43 22ZM43 22.5333C47.7128 22.5333 51.5333 26.3539 51.5333 31.0667C51.5333 35.7795 47.7128 39.6 43 39.6C38.2872 39.6 34.4667 35.7795 34.4667 31.0667C34.4667 26.3539 38.2872 22.5333 43 22.5333Z" fill="white"/>
</svg>
