<svg width="18" height="18" viewBox="0 0 18 18" fill="none" xmlns="http://www.w3.org/2000/svg">
<path opacity="0.4" d="M17.3334 14V4.80105C17.3334 4.29474 17.1032 3.81589 16.7078 3.4996L14.0797 1.39711C13.4887 0.924277 12.7543 0.666675 11.9974 0.666674L6.00263 0.666664C5.24572 0.666664 4.51135 0.924268 3.9203 1.39711L1.29219 3.4996C0.896836 3.81589 0.666687 4.29474 0.666687 4.80105V14C0.666687 15.841 2.15907 17.3333 4.00002 17.3333H14C15.841 17.3333 17.3334 15.841 17.3334 14Z" fill="#EEEEEE"/>
<path d="M6.5 4H11.5V9L9 7.33333L6.5 9V4Z" fill="#EEEEEE"/>
<path d="M11.9974 0.666674L6.00258 0.666664C5.24567 0.666664 4.5113 0.924268 3.92026 1.39711L1.29215 3.4996C1.11819 3.63877 0.976221 3.8094 0.871765 4H17.1282C17.0237 3.8094 16.8818 3.63876 16.7078 3.4996L14.0797 1.39711C13.4886 0.924277 12.7543 0.666675 11.9974 0.666674Z" fill="#EEEEEE"/>
</svg>
