<svg width="20" height="21" viewBox="0 0 20 21" fill="none" xmlns="http://www.w3.org/2000/svg">
<path fill-rule="evenodd" clip-rule="evenodd" d="M18.8067 6.12358L18.1842 5.04349C17.6577 4.12957 16.4907 3.81429 15.5755 4.33869V4.33869C15.1399 4.59531 14.6201 4.66812 14.1307 4.54106C13.6413 4.41399 13.2226 4.09749 12.9668 3.66134C12.8023 3.38412 12.7139 3.06836 12.7105 2.74601V2.74601C12.7254 2.22919 12.5304 1.72837 12.17 1.35764C11.8096 0.986906 11.3145 0.777833 10.7975 0.778046H9.5435C9.03697 0.77804 8.55131 0.979884 8.194 1.33891C7.83669 1.69795 7.63717 2.18456 7.63961 2.69109V2.69109C7.6246 3.73689 6.77248 4.57678 5.72657 4.57667C5.40421 4.57332 5.08846 4.48491 4.81123 4.32038V4.32038C3.89606 3.79598 2.72911 4.11126 2.20254 5.02519L1.53435 6.12358C1.00841 7.03636 1.3194 8.20258 2.23 8.73228V8.73228C2.8219 9.07401 3.18653 9.70556 3.18653 10.389C3.18653 11.0725 2.8219 11.704 2.23 12.0458V12.0458C1.32056 12.5719 1.00923 13.7353 1.53435 14.6453V14.6453L2.16593 15.7346C2.41265 16.1798 2.8266 16.5083 3.31619 16.6474C3.80578 16.7866 4.33064 16.7249 4.77462 16.476V16.476C5.21108 16.2213 5.73119 16.1515 6.21934 16.2822C6.70749 16.4128 7.12324 16.733 7.37416 17.1716C7.5387 17.4489 7.62711 17.7646 7.63046 18.087V18.087C7.63046 19.1435 8.48696 20 9.5435 20H10.7975C11.8505 20 12.7055 19.1491 12.7105 18.0961V18.0961C12.7081 17.588 12.9089 17.1 13.2682 16.7407C13.6275 16.3814 14.1155 16.1806 14.6236 16.1831C14.9452 16.1917 15.2596 16.2797 15.5389 16.4394V16.4394C16.4517 16.9653 17.6179 16.6543 18.1476 15.7437V15.7437L18.8067 14.6453C19.0618 14.2075 19.1318 13.686 19.0012 13.1963C18.8706 12.7067 18.5502 12.2893 18.111 12.0366V12.0366C17.6718 11.7839 17.3514 11.3665 17.2208 10.8769C17.0902 10.3873 17.1603 9.86579 17.4154 9.42793C17.5812 9.13831 17.8214 8.89817 18.111 8.73228V8.73228C19.0161 8.20286 19.3264 7.04346 18.8067 6.13274V6.13274V6.12358Z" stroke="#555555" stroke-width="1.5" stroke-linecap="round" stroke-linejoin="round"/>
<circle cx="10.1751" cy="10.389" r="2.63616" stroke="#555555" stroke-width="1.5" stroke-linecap="round" stroke-linejoin="round"/>
</svg>
