<svg width="18" height="18" viewBox="0 0 18 18" fill="none" xmlns="http://www.w3.org/2000/svg">
<path opacity="0.4" fill-rule="evenodd" clip-rule="evenodd" d="M6.82159 0.130726C7.11758 0.308319 7.21355 0.692232 7.03596 0.988219L4.53596 5.15489C4.35837 5.45087 3.97446 5.54685 3.67847 5.36926C3.38248 5.19167 3.2865 4.80775 3.46409 4.51177L5.96409 0.345099C6.14169 0.0491119 6.5256 -0.0468663 6.82159 0.130726Z" fill="#EEEEEE"/>
<path opacity="0.4" fill-rule="evenodd" clip-rule="evenodd" d="M14.3216 5.36926C14.0256 5.54685 13.6417 5.45087 13.4641 5.15489L10.9641 0.988219C10.7865 0.692231 10.8825 0.308319 11.1785 0.130726C11.4745 -0.0468664 11.8584 0.0491118 12.036 0.345099L14.536 4.51177C14.7136 4.80775 14.6176 5.19167 14.3216 5.36926Z" fill="#EEEEEE"/>
<path opacity="0.4" d="M15.9017 14.6733C15.5851 16.2221 14.2338 17.3333 12.6669 17.3333H5.33317C3.7662 17.3333 2.41491 16.2221 2.09839 14.6733L0.735955 8.00666C0.313303 5.93854 1.87838 4 3.97074 4L14.0293 4C16.1217 4 17.6867 5.93853 17.2641 8.00666L15.9017 14.6733Z" fill="#EEEEEE"/>
<path d="M14.0293 4H3.97074C2.10783 4 0.662906 5.53668 0.666694 7.33333H17.3333C17.3371 5.53668 15.8922 4 14.0293 4Z" fill="#EEEEEE"/>
<path fill-rule="evenodd" clip-rule="evenodd" d="M12.125 12.3333C12.125 12.6785 11.8452 12.9583 11.5 12.9583L6.5 12.9583C6.15482 12.9583 5.875 12.6785 5.875 12.3333C5.875 11.9881 6.15482 11.7083 6.5 11.7083L11.5 11.7083C11.8452 11.7083 12.125 11.9882 12.125 12.3333Z" fill="#EEEEEE"/>
</svg>
