<svg width="16" height="15" viewBox="0 0 16 15" fill="none" xmlns="http://www.w3.org/2000/svg">
<path d="M15.3333 7.5L13.7067 5.64L13.9333 3.18L11.5267 2.63333L10.2667 0.5L7.99999 1.47333L5.73332 0.5L4.47332 2.62667L2.06666 3.16667L2.29332 5.63333L0.666656 7.5L2.29332 9.36L2.06666 11.8267L4.47332 12.3733L5.73332 14.5L7.99999 13.52L10.2667 14.4933L11.5267 12.3667L13.9333 11.82L13.7067 9.36L15.3333 7.5ZM6.25332 10.1733L4.66666 8.57333C4.40666 8.31333 4.40666 7.89333 4.66666 7.63333L4.71332 7.58667C4.97332 7.32667 5.39999 7.32667 5.65999 7.58667L6.73332 8.66667L10.1667 5.22667C10.4267 4.96667 10.8533 4.96667 11.1133 5.22667L11.16 5.27333C11.42 5.53333 11.42 5.95333 11.16 6.21333L7.21332 10.1733C6.93999 10.4333 6.51999 10.4333 6.25332 10.1733Z" fill="#0469FF"/>
</svg>
